<svg width="70" height="74" viewBox="0 0 70 74" fill="none" xmlns="http://www.w3.org/2000/svg">
<path d="M59.3971 11.2264C65.0405 17.1644 68.5523 24.9773 69.3341 33.3338C70.1158 41.6904 68.1192 50.0736 63.6845 57.0551C59.2497 64.0366 52.6512 69.1844 45.0131 71.6215C37.375 74.0586 29.17 73.6341 21.7961 70.4204C14.4222 67.2068 8.33554 61.4027 4.57325 53.9971C0.810957 46.5916 -0.394201 38.0428 1.16311 29.8072C2.72042 21.5717 6.94384 14.159 13.1138 8.83209C19.2837 3.50522 27.0184 0.59376 35.0001 0.593778C39.532 0.587853 44.0203 1.52414 48.2072 3.34884C52.394 5.17354 56.1968 7.85069 59.3971 11.2264Z" fill="#EC4525"/>
<path d="M59.3971 11.2264C65.0405 17.1644 68.5523 24.9773 69.3341 33.3338C70.1158 41.6904 68.1192 50.0736 63.6845 57.0551C59.2497 64.0366 52.6512 69.1844 45.0131 71.6215C37.375 74.0586 29.17 73.6341 21.7961 70.4204C14.4222 67.2068 8.33554 61.4027 4.57325 53.9971C0.810957 46.5916 -0.394201 38.0428 1.16311 29.8072C2.72042 21.5717 6.94384 14.159 13.1138 8.83209C19.2837 3.50522 27.0184 0.59376 35.0001 0.593778C39.532 0.587853 44.0203 1.52414 48.2072 3.34884C52.394 5.17354 56.1968 7.85069 59.3971 11.2264Z" fill="#EC4525"/>
<path d="M58.5099 36.9228H58.4921C56.1288 41.406 52.6681 45.1422 48.4692 47.7436C44.2703 50.3451 39.4862 51.717 34.6133 51.717C29.7403 51.717 24.9562 50.3451 20.7573 47.7436C16.5584 45.1422 13.0977 41.406 10.7344 36.9228H10.7478C13.1116 32.4396 16.5727 28.7035 20.772 26.1021C24.9712 23.5008 29.7556 22.1289 34.6288 22.1289C39.502 22.1289 44.2864 23.5008 48.4857 26.1021C52.6849 28.7035 56.146 32.4396 58.5099 36.9228Z" fill="#FF70EA"/>
<path d="M41.4085 36.8951C41.4083 38.5457 40.8641 40.1453 39.8686 41.4211C38.8731 42.697 37.4879 43.5703 35.949 43.8922C34.4101 44.2141 32.8127 43.9646 31.4291 43.1864C30.0454 42.4082 28.961 41.1493 28.3606 39.6243C27.7603 38.0992 27.6811 36.4023 28.1367 34.8228C28.5922 33.2432 29.5543 31.8787 30.8589 30.9617C32.1636 30.0447 33.7301 29.632 35.2915 29.7939C36.853 29.9557 38.3128 30.6822 39.4222 31.8494C40.0529 32.5113 40.5531 33.2978 40.894 34.1637C41.2348 35.0296 41.4097 35.9578 41.4085 36.8951Z" fill="#0C0C19"/>
<path d="M41.4077 36.8934C41.4075 38.5441 40.8633 40.1436 39.8678 41.4195C38.8723 42.6953 37.4871 43.5686 35.9482 43.8905C34.4093 44.2124 32.812 43.963 31.4283 43.1848C30.0446 42.4065 28.9602 41.1476 28.3598 39.6226C27.7595 38.0975 27.6803 36.4007 28.1359 34.8211C28.5914 33.2416 29.5535 31.8771 30.8581 30.9601C32.1628 30.0431 33.7293 29.6304 35.2907 29.7922C36.8522 29.9541 38.312 30.6805 39.4214 31.8477C40.0521 32.5096 40.5523 33.2961 40.8932 34.162C41.234 35.0279 41.4089 35.9562 41.4077 36.8934" fill="#0C0C19"/>
</svg>
